<?xml version="1.0" encoding="UTF-8" standalone="no"?>
<!-- Created with Inkscape (http://www.inkscape.org/) -->

<svg
   xmlns:dc="http://purl.org/dc/elements/1.1/"
   xmlns:cc="http://creativecommons.org/ns#"
   xmlns:rdf="http://www.w3.org/1999/02/22-rdf-syntax-ns#"
   xmlns:svg="http://www.w3.org/2000/svg"
   xmlns="http://www.w3.org/2000/svg"
   xmlns:sodipodi="http://sodipodi.sourceforge.net/DTD/sodipodi-0.dtd"
   xmlns:inkscape="http://www.inkscape.org/namespaces/inkscape"
   width="207mm"
   height="102mm"
   viewBox="0 0 207 102"
   version="1.1"
   id="svg8"
   inkscape:version="0.92.4 (5da689c313, 2019-01-14)"
   sodipodi:docname="lionYoung.svg">
  <defs
     id="defs2" />
  <sodipodi:namedview
     id="base"
     pagecolor="#ffffff"
     bordercolor="#666666"
     borderopacity="1.0"
     inkscape:pageopacity="0.0"
     inkscape:pageshadow="2"
     inkscape:zoom="0.98994949"
     inkscape:cx="414.68496"
     inkscape:cy="209.77144"
     inkscape:document-units="mm"
     inkscape:current-layer="g3845"
     showgrid="false"
     height="209mm"
     inkscape:window-width="1693"
     inkscape:window-height="896"
     inkscape:window-x="975"
     inkscape:window-y="762"
     inkscape:window-maximized="0" />
  <metadata
     id="metadata5">
    <rdf:RDF>
      <cc:Work
         rdf:about="">
        <dc:format>image/svg+xml</dc:format>
        <dc:type
           rdf:resource="http://purl.org/dc/dcmitype/StillImage" />
        <dc:title></dc:title>
      </cc:Work>
    </rdf:RDF>
  </metadata>
  <g
     inkscape:label="Layer 1"
     inkscape:groupmode="layer"
     id="layer1"
     transform="translate(0,-195)">
    <g
       transform="matrix(0.26458333,0,0,0.26458333,6.4735443,27.777011)"
       id="layer1-5">
      <g
         id="g3845">
        <path
           inkscape:connector-curvature="0"
           id="path44051"
           style="fill:#000000;fill-rule:evenodd"
           d="m 384.26979,947.83906 -16.80086,-0.57983 3.47897,-28.53883 19.69292,-4.19315 z" />
        <path
           inkscape:connector-curvature="0"
           id="path29128"
           style="fill:#ffd42a;fill-rule:evenodd;stroke:#000000;stroke-width:2;stroke-opacity:0.95077;fill-opacity:1"
           d="m 449.97415,959.50632 c 0,0 -0.94045,0.26163 -8.8954,1.7112 -7.94788,1.45664 -16.08668,5.81948 -22.91026,4.10121 -6.62559,-1.6617 -7.14178,-1.83847 -15.90284,-5.29622 -8.76812,-3.46483 -12.44507,-1.92334 -19.15552,-8.54893 -6.88722,-6.80236 -10.26012,-11.03793 -10.26012,-19.15552 -0.007,-8.12466 10.26012,-13.3431 10.26012,-13.3431 z" />
        <path
           inkscape:connector-curvature="0"
           id="path30898"
           style="fill:#000000;fill-rule:evenodd;stroke:#000000;stroke-width:2;stroke-opacity:0.95077"
           d="m 652.80773,919.05274 c -5.54372,-5.17602 -10.42983,-9.68029 -20.30104,-5.87606 7.39634,-8.358 25.88011,-18.71004 28.17821,-2.43952 z" />
        <path
           inkscape:connector-curvature="0"
           id="path30896"
           style="fill:#ffd42a;fill-rule:evenodd;stroke:#000000;stroke-width:2;stroke-opacity:0.95077;fill-opacity:1"
           d="m 654.13709,934.36867 c -10.62074,-8.68327 -9.30553,-18.38478 -8.65499,-19.53029 0.72125,-1.27279 11.37028,-11.42684 13.20169,-11.64605 1.73948,-0.21213 4.99217,6.71752 6.54073,16.08668 1.48493,8.93783 15.19573,12.97541 15.19573,12.97541 0,0 -15.78262,10.69146 -26.28316,2.11425 z" />
        <path
           inkscape:connector-curvature="0"
           id="path30009"
           style="fill:#000000;fill-rule:evenodd;stroke:#000000;stroke-width:2;stroke-opacity:0.95077"
           d="m 398.67355,904.78332 c 1.90212,-4.22142 -4.63155,-13.41381 -14.70782,-19.84141 19.63636,-0.55862 26.33266,15.47149 24.11234,19.3323 z" />
        <path
           inkscape:connector-curvature="0"
           id="path30011"
           style="fill:#000000;fill-rule:evenodd;stroke:#000000;stroke-width:2;stroke-opacity:0.95077"
           d="m 360.67363,943.3065 c -2.31931,-1.30108 -15.45735,-5.95384 -21.51018,7.99031 -0.53741,-19.61514 16.75843,-23.50423 24.28204,-19.14845 z" />
        <path
           inkscape:connector-curvature="0"
           id="path30013"
           style="fill:#000000;fill-rule:evenodd;stroke:#000000;stroke-width:2;stroke-opacity:0.95077"
           d="m 362.08078,944.7985 -5.16895,23.07289 c 6.51952,-6.73166 12.65014,-8.6762 19.84141,-11.28542 z" />
        <path
           inkscape:connector-curvature="0"
           id="path30888"
           style="fill:#000000;fill-rule:evenodd;stroke:#000000;stroke-width:2;stroke-opacity:0.95077"
           d="m 356.18351,915.53842 c -4.13658,-3.85373 -9.60959,-7.53069 -16.44024,-7.55897 9.44695,-9.98435 34.42903,-3.66989 32.93704,3.40825 z" />
        <path
           inkscape:connector-curvature="0"
           id="path30890"
           style="fill:#000000;fill-rule:evenodd;stroke:#000000;stroke-width:2;stroke-opacity:0.95077"
           d="m 704.49724,949.44419 c 0.33234,8.8459 1.88797,16.45437 5.98919,23.52544 -6.28618,-2.07182 -9.75807,-4.55377 -12.19759,-7.7711 -2.3476,-3.08299 -0.48084,-11.42685 -5.76999,-17.0837 z" />
        <path
           inkscape:connector-curvature="0"
           id="path30892"
           style="fill:#000000;fill-rule:evenodd;stroke:#000000;stroke-width:2;stroke-opacity:0.95077"
           d="m 674.21892,958.87699 c -10.42982,3.33048 -13.31482,9.53887 -9.87828,21.85667 -10.94601,-12.43093 -10.35204,-26.62964 4.10122,-34.94521 z" />
        <path
           inkscape:connector-curvature="0"
           id="path30894"
           style="fill:#000000;fill-rule:evenodd;stroke:#000000;stroke-width:2;stroke-opacity:0.95077"
           d="m 646.81853,944.34595 c -5.48007,0.81317 -17.26754,0.84853 -21.07885,13.75322 -7.68625,-14.05021 10.68439,-29.09744 23.85071,-23.85071 z" />
        <path
           inkscape:connector-curvature="0"
           id="path32650"
           style="fill:#000000;fill-rule:evenodd;stroke:#000000;stroke-width:2;stroke-opacity:0.95077"
           d="m 108.25066,953.7434 c -5.58473,2.14819 -14.56428,6.5174 -12.53347,19.78838 -6.39861,-10.61438 -9.286433,-20.0585 6.79176,-33.9588 z" />
        <path
           inkscape:connector-curvature="0"
           id="path32652"
           style="fill:#000000;fill-rule:evenodd;stroke:#000000;stroke-width:2;stroke-opacity:0.95077"
           d="m 80.85027,936.65263 c -4.53114,0.69862 -13.975258,1.86959 -22.368616,19.31391 1.057832,-23.21856 17.920915,-32.74187 27.049663,-31.0236 z" />
        <path
           inkscape:connector-curvature="0"
           id="path32654"
           style="fill:#000000;fill-rule:evenodd;stroke:#000000;stroke-width:2;stroke-opacity:0.95077"
           d="m 83.544347,907.9653 c -4.490128,-5.19723 -14.601755,-8.0398 -28.810359,-3.51856 10.149811,-9.4427 21.470591,-14.90864 33.137852,-3.15652 z" />
        <path
           inkscape:connector-curvature="0"
           id="path32658"
           style="fill:#000000;fill-rule:evenodd;stroke:#000000;stroke-width:2;stroke-opacity:0.95077"
           d="m 111.64477,896.0152 c 10.22476,-18.10193 -9.99142,-31.99658 -22.71934,-27.62666 13.90172,6.94379 14.67247,6.39931 12.88349,20.1384 z" />
        <path
           inkscape:connector-curvature="0"
           id="path36162"
           style="fill:#000000;fill-rule:evenodd;stroke:#000000;stroke-width:2;stroke-opacity:0.95077"
           d="m 45.176733,757.13943 c -6.710443,-3.61332 -20.216184,-2.76479 -29.146942,8.18829 6.045763,-22.35164 19.848488,-20.97985 34.075476,-16.00182 z" />
        <path
           inkscape:connector-curvature="0"
           id="path36164"
           style="fill:#000000;fill-rule:evenodd;stroke:#000000;stroke-width:2;stroke-opacity:0.95077"
           d="m 47.375835,731.69065 c -2.602153,-6.49124 -17.005919,-11.17935 -28.333769,-5.55078 14.5664,-15.95233 29.352003,-8.29437 34.775512,0 z" />
        <path
           inkscape:connector-curvature="0"
           id="path36166"
           style="fill:#000000;fill-rule:evenodd;stroke:#000000;stroke-width:2;stroke-opacity:0.95077"
           d="m 74.22468,716.86263 c 1.718269,-11.06623 -5.713423,-21.26978 -18.356492,-24.57904 15.026019,-1.74655 24.840661,3.93859 27.435743,15.17452 1.173797,5.06288 -0.190919,11.92889 -2.142534,19.07066 z" />
        <path
           inkscape:connector-curvature="0"
           id="path36168"
           style="fill:#000000;fill-rule:evenodd;stroke:#000000;stroke-width:2;stroke-opacity:0.95077"
           d="m 103.20899,729.61176 c 2.39709,-0.96874 15.95939,-11.63191 4.63862,-27.81758 9.57422,4.36992 26.07809,27.13876 -0.92631,33.8492 z" />
        <path
           inkscape:connector-curvature="0"
           id="path28249"
           style="fill:#ffd42a;fill-rule:evenodd;stroke:#000000;stroke-width:2;stroke-opacity:0.95077;fill-opacity:1"
           d="m 533.60367,854.67774 c -37.3706,25.81647 -15.14623,46.17407 6.15183,45.14169 -6.95086,9.12875 -15.28058,11.40564 -27.01855,13.0037 5.46593,5.01338 9.92071,6.95086 16.41195,6.83772 -11.00259,7.35391 -22.51428,11.11572 -36.59278,14.36134 l 13.85222,6.66802 c -13.45624,6.1589 -26.04981,9.0651 -44.46287,7.1842 l 15.73312,8.20951 c -11.80161,2.5668 -22.57792,2.39709 -34.37246,4.61741 0,0 -8.12465,-11.71676 -22.91733,-17.44433 -14.70075,-5.69221 -21.92738,-3.5426 -30.78036,-10.93894 -8.66205,-7.24784 -14.95531,-16.11496 -12.14102,-22.0688 2.90621,-6.14476 9.65201,-10.24598 15.56342,-9.39745 6.28618,0.89803 11.71676,1.0253 15.73313,1.36472 2.47487,5.3033 -9.31967,13.08147 -5.81949,19.83434 3.50725,6.75994 10.56417,7.05693 19.84141,7.18421 9.27724,0.12728 8.85298,-4.2285 17.27462,-6.66802 8.42164,-2.43952 9.35502,0.81317 16.41195,-3.07592 7.05693,-3.88908 9.87828,-6.62559 11.80161,-12.48043 1.92333,-5.86899 -3.12541,-4.75176 -4.10829,-10.95308 -0.97581,-6.19426 0.17678,-13.85223 0.17678,-13.85223 l -12.48751,16.58873 5.9892,-34.03305 -15.73313,9.92071 c 0,0 8.12466,-21.20613 20.68995,-33.34716 12.56528,-12.14102 29.58534,-15.21694 29.58534,-15.21694 l 56.61097,-11.11571 z" />
        <path
           inkscape:connector-curvature="0"
           id="path29126"
           style="fill:#ffd42a;fill-rule:evenodd;stroke:#000000;stroke-width:2;stroke-opacity:0.95077;fill-opacity:1"
           d="m 522.82736,836.0384 c -15.1038,1.99404 -29.18937,3.98808 -44.29317,11.11572 5.35987,-6.61852 10.20355,-13.06026 16.58873,-18.29992 l 23.08703,-2.5668 z" />
        <path
           inkscape:connector-curvature="0"
           id="path2296"
           style="fill:#ffd42a;fill-rule:evenodd;stroke:#000000;stroke-width:2;stroke-opacity:0.95077;fill-opacity:1"
           d="m 306.72139,895.4778 c 39.61212,-10.47932 43.87597,-12.3673 81.04858,-34.37953 36.03416,-21.34049 63.00321,-32.97946 73.97044,-34.71188 11.56119,-1.81726 38.82723,-0.94045 46.04679,0.62226 -1.32936,-3.74767 -38.31812,-21.51726 -34.88865,-18.07365 39.17372,9.68736 59.83538,45.11341 72.04004,57.07766 18.28578,17.91808 30.24296,20.25861 40.51722,24.55075 l -1.23037,-12.27538 c 9.72979,10.26719 26.27609,14.84924 33.77142,14.128 l -8.59842,-9.82879 c 12.38144,0.98288 31.02078,-0.98288 46.0468,-5.52957 14.7361,-4.45478 11.37735,-1.87384 15.88869,6.01748 4.70933,8.24486 8.47821,18.26456 8.06101,25.30028 -0.4384,7.31148 -0.85559,17.45846 -9.13582,23.29209 -8.29436,5.83363 -16.03011,-1.85969 -24.02041,0.0354 -8.34386,1.9799 -8.59842,11.35613 -5.52958,16.57458 3.06885,5.21845 8.17416,9.6308 15.69777,6.40639 7.52362,-3.22441 14.77146,-13.1734 16.50388,-16.58873 -2.94864,5.83363 -10.4369,11.93597 -8.86712,13.2229 1.27279,1.03238 2.72236,1.27986 3.88908,2.84257 2.0789,2.786 4.29921,7.14178 8.26608,8.20951 4.05879,1.10309 12.02789,-6.24375 14.2482,-9.79343 5.06289,-8.13173 2.00112,-18.05244 2.786,-21.2132 0.18385,3.46482 0.56569,12.09152 -1.15258,19.72121 4.59619,4.90732 9.94899,1.67584 17.76959,1.73241 3.22441,0.0283 5.63564,-2.70822 7.55897,-5.21138 2.885,-3.76181 3.95273,-8.42164 -0.63639,-13.64716 -7.65797,-8.70449 5.91848,-11.41978 4.9851,-25.50534 -0.9051,-13.47746 -10.50053,-10.79752 -8.3085,-22.40822 2.23445,-11.86525 6.41346,-20.68287 2.77893,-28.02264 -1.2233,-5.5225 -4.78005,4.97803 -8.59842,9.82879 1.00409,-10.21063 -0.60811,-29.47221 -3.06177,-34.99472 l -6.75287,12.89056 c -0.42427,-10.26719 -6.14476,-27.62666 -9.21361,-31.30362 l -3.06884,16.57458 c -1.42835,-9.23481 -8.17415,-20.09597 -12.28244,-27.01855 1.31521,9.34796 -6.13769,28.24185 -28.24185,28.24185 -22.10416,0 -44.46994,-17.61403 -60.16064,-28.24185 36.10487,2.63044 70.91574,-3.66988 84.11035,-21.48897 13.43503,-18.1585 2.58094,-50.16923 -44.51944,-59.26969 -47.2206,-9.13582 -120.9789,16.72307 -140.88396,12.60064 -20.71823,-4.29921 -15.21694,-19.02117 -27.58424,-27.00441 -12.44507,-8.03273 -21.45362,-6.32153 -38.74238,-4.94267 -17.01299,1.35764 -24.50125,2.4678 -31.2824,-1.8102 -7.2337,-4.56084 -4.16486,-8.1388 -1.25158,-12.28244 2.92035,-4.13658 9.0439,-2.76479 14.72196,-2.48902 -3.94565,-3.33754 -16.94227,-7.02864 -22.09001,-2.4183 -5.36694,4.81539 -7.87717,27.08219 10.84702,44.57601 18.72418,17.49382 45.78516,26.04274 78.21308,25.10936 32.7249,-0.93338 58.54844,-9.68736 108.22976,-15.69777 49.74496,-6.01748 81.1405,9.76515 79.61315,27.4711 -1.49199,17.37361 -40.2768,23.36281 -72.45016,19.84142 -35.63111,-3.89616 -54.96341,-10.9248 -108.66817,-10.4369 -53.72597,0.49497 -81.68497,6.18011 -135.09982,17.21098 -53.75426,11.11572 -71.04302,-0.78489 -78.55956,24.5366 -7.52362,25.32857 7.50947,88.50149 47.27009,77.97267 z" />
        <path
           inkscape:connector-curvature="0"
           id="path30003"
           style="fill:#ffd42a;fill-rule:evenodd;stroke:#000000;stroke-width:2;stroke-opacity:0.95077;fill-opacity:1"
           d="m 392.73386,957.44864 c 2.26274,2.13546 1.11015,7.26198 -3.67696,10.02677 -4.70226,2.72236 -11.6814,1.42836 -14.79974,-1.33643 -3.1042,-2.76479 -6.21547,-12.40973 -4.05173,-13.82394 2.28396,-1.47785 3.40826,-2.64458 6.07405,-4.95682 2.65165,-2.31224 2.0294,0.75661 8.22365,5.93263 2.77893,2.32638 5.96091,2.0294 8.23073,4.15779 z" />
        <path
           inkscape:connector-curvature="0"
           id="path30005"
           style="fill:#ffd42a;fill-rule:evenodd;stroke:#000000;stroke-width:2;stroke-opacity:0.95077;fill-opacity:1"
           d="m 372.53181,930.28867 c -1.19501,-1.37886 -11.73797,-2.06476 -12.91884,-1.29401 -1.16672,0.77075 -5.27501,12.13395 -4.85075,13.61888 0.48083,1.66877 4.90732,5.38815 5.9892,6.3286 1.18086,1.03945 8.86711,1.78191 9.63786,2.25567 0.79903,0.48791 4.44063,-2.09303 5.8902,-4.20728 1.45664,-2.13547 -1.49907,-5.43058 -2.29103,-8.37215 -1.76069,-6.51245 -0.26163,-6.93671 -1.45664,-8.32971 z" />
        <path
           inkscape:connector-curvature="0"
           id="path30007"
           style="fill:#ffd42a;fill-rule:evenodd;stroke:#000000;stroke-width:2;stroke-opacity:0.95077;fill-opacity:1"
           d="m 373.9036,927.20568 c -2.62336,2.86378 -13.9795,2.52437 -15.76141,1.01116 -0.93338,-0.79196 -0.50912,-4.63862 -1.61927,-8.08223 -1.11016,-3.45775 -3.7406,-6.54074 -3.68403,-7.48826 0.11314,-1.76777 4.53256,-6.47003 8.80348,-8.18122 4.278,-1.71827 6.24375,-0.61519 11.94303,4.02343 5.78414,4.70933 1.56271,2.46781 3.79717,8.18123 2.29102,5.82656 -0.74954,7.56604 -3.47897,10.53589 z" />
        <path
           inkscape:connector-curvature="0"
           id="path31773"
           style="fill:none;stroke:#000000;stroke-width:2;stroke-opacity:0.95077"
           d="m 463.66374,736.25856 c -8.36508,-6.61144 -17.51504,-14.43205 -44.94371,-14.0997 -27.32261,0.32526 -40.20609,-24.56489 -36.57156,-27.76102" />
        <path
           inkscape:connector-curvature="0"
           id="path32656"
           style="fill:#ffd42a;fill-rule:evenodd;stroke:#000000;stroke-width:2;stroke-opacity:0.95077;fill-opacity:1"
           d="m 123.11404,917.56781 c -13.55524,-12.21173 -10.93894,-18.81611 -9.4823,-21.89909 1.52028,-3.23148 -1.69706,-4.18608 -3.79717,-6.83773 -2.0506,-2.57386 -5.32451,-3.68402 -6.50537,-4.63862 -2.36881,-1.90211 -2.5173,1.58392 -8.54893,3.16077 -5.94676,1.56271 -9.835852,10.76924 -9.835852,10.76924 z" />
        <path
           inkscape:connector-curvature="0"
           id="path31775"
           style="fill:#ffd42a;fill-rule:evenodd;stroke:#000000;stroke-width:2;stroke-opacity:0.95077;fill-opacity:1"
           d="m 317.32092,908.48149 c -8.71156,3.28098 -17.41604,5.28209 -28.05093,5.3528 l 10.28133,7.2832 c -14.42497,5.99627 -27.98728,5.1336 -44.32852,-0.64347 l 11.34199,10.91773 c -14.77146,5.21138 -25.48413,4.21436 -42.39812,0.86267 l 10.0692,9.6308 c -16.99178,2.00111 -26.05688,-0.92631 -43.90426,-7.48826 l 11.5612,12.84813 c -8.92369,-2.50316 -8.92369,-0.67883 -15.84627,-1.71827 -6.92257,-1.03945 -15.59877,-3.56382 -18.54034,-3.90323 -2.93449,-0.33234 -3.42946,5.06995 -6.94379,7.11349 -3.66281,2.13546 -13.93,2.12132 -26.76399,3.21734 -3.92444,0.33234 -5.72756,8.9944 -13.28653,11.70261 -7.70605,2.75631 -14.34295,-3.5327 -16.05698,-8.49376 -1.66312,-4.81399 -6.63478,-9.20441 -6.63478,-9.20441 6.59801,-5.49493 15.42977,-9.61736 20.55629,-11.13764 -10.21061,1.49907 -22.90955,13.06663 -25.69767,13.70514 -2.63963,0.60317 -11.390074,-3.02076 -14.707111,-9.12238 -3.317746,-6.10092 1.429062,-15.28836 1.429062,-15.28836 10.458109,0.30406 21.050569,-0.78489 30.624789,-3.6416 -10.0197,2.84964 -28.934803,4.01637 -32.343058,3.21027 -3.305017,-0.78206 -4.921463,-7.3822 -2.77893,-14.77146 2.142534,-7.38927 9.687363,-14.46741 11.349064,-14.78561 2.969854,-0.55154 6.406384,5.88313 12.303654,9.61666 5.91142,3.74766 12.26123,3.53553 15.11087,5.38108 3.09713,2.00818 6.71045,5.91848 19.9192,2.35466 12.79863,-3.46482 30.10154,-14.02192 41.88194,-20.81015 11.78039,-6.77408 29.39442,-33.34008 38.84844,-37.2221 l 71.31172,-29.33786 1.0748,48.60652 c 0,0 11.79454,12.02082 14.6654,16.02304 1.92333,2.68701 2.39709,5.23966 2.88499,6.25082 1.36472,2.77893 13.06734,13.4916 13.06734,13.4916 z" />
        <path
           inkscape:connector-curvature="0"
           id="path36160"
           style="fill:#ffd42a;fill-rule:evenodd;stroke:#000000;stroke-width:2;stroke-opacity:0.95077;fill-opacity:1"
           d="m 73.142806,773.49481 c -9.234814,1.08894 -18.717116,2.42537 -31.621815,-3.54968 -12.784492,-5.91141 0.04243,-25.59726 9.701505,-20.44953 9.729789,5.19017 15.478568,5.28209 21.92031,23.99921 z" />
        <path
           inkscape:connector-curvature="0"
           id="path36158"
           style="fill:#ffd42a;fill-rule:evenodd;stroke:#000000;stroke-width:2;stroke-opacity:0.95077;fill-opacity:1"
           d="m 68.20013,756.74345 c -10.359114,-3.31633 -21.694036,-9.20653 -27.775154,-15.59878 -6.08819,-6.39931 10.578317,-23.49009 15.619988,-18.02415 5.126524,5.57907 12.105668,20.39296 12.155166,33.62293 z" />
        <path
           inkscape:connector-curvature="0"
           id="path35283"
           style="fill:#ffd42a;fill-rule:evenodd;stroke:#000000;stroke-width:2;stroke-opacity:0.95077;fill-opacity:1"
           d="m 72.138715,752.80486 c -5.105311,-13.60473 -11.568267,-19.601 -12.289516,-30.84399 -0.721249,-11.22886 22.676914,-16.51095 22.634488,-5.15481 -0.0495,11.34906 -8.570134,19.84141 -10.344972,35.9988 z" />
        <path
           inkscape:connector-curvature="0"
           id="path34408"
           style="fill:#ffd42a;fill-rule:evenodd;stroke:#000000;stroke-width:2;stroke-opacity:0.95077"
           d="m 103.90902,804.04889 c -11.20764,3.93859 -23.299166,-0.89802 -35.249271,-12.52286 -11.950104,-11.62484 -16.878639,-41.03341 -6.95793,-50.54399 9.694434,-9.28431 20.32932,-6.41346 28.750961,-3.25269 z" />
        <path
           inkscape:connector-curvature="0"
           id="path33533"
           style="fill:#ffd42a;fill-rule:evenodd;stroke:#000000;stroke-width:2;stroke-opacity:0.95077;fill-opacity:1"
           d="m 199.87755,869.83811 c -15.76848,15.07551 -31.1127,8.69741 -43.57192,-3.18198 -12.69964,-12.11981 -22.25265,-26.43873 -22.25265,-26.43873 v 13.44917 c -13.2229,-6.26496 -22.25972,-18.08779 -25.74575,-32.68954 l -3.47897,14.14213 c -6.08112,-6.43467 -9.91364,-12.0491 -15.52806,-25.27199 -3.118345,-7.34684 13.51988,-10.64903 5.09824,-27.35796 -8.421646,-16.72308 -20.562669,-41.13948 -15.895764,-52.02892 4.716402,-11.00965 10.521754,-13.20876 12.968334,-15.14623 2.51023,-1.97283 9.92778,5.81242 11.17229,6.67509 3.18905,2.22739 6.88722,1.47078 7.65089,4.35578 0.77075,2.90621 4.55377,6.68923 4.278,7.67211 -0.78489,2.77893 -12.7562,1.40007 -17.16148,14.84217 -2.96278,9.04389 11.56827,21.94859 17.85444,24.34568 6.40639,2.44659 7.94081,9.48231 31.76324,19.71414 19.71414,8.457 64.58713,8.95197 79.13232,7.03571 z" />
        <path
           inkscape:connector-curvature="0"
           id="path39684"
           style="fill:#ffd42a;fill-rule:evenodd;stroke:#000000;stroke-width:2;stroke-opacity:0.95077;fill-opacity:1"
           d="m 323.44446,691.80983 c -12.40972,-14.67246 -12.18345,-16.70893 -19.18381,-20.994 -7.06399,-4.33456 -24.82651,3.61332 -24.82651,3.61332 z" />
        <path
           inkscape:connector-curvature="0"
           id="path38791"
           style="fill:#ffffff;fill-rule:evenodd;stroke:#000000;stroke-width:2;stroke-opacity:0.95077"
           d="m 231.35795,750.04008 c 0,0 3.15369,-10.04092 2.94156,-23.24968 -0.23335,-13.42795 -2.04354,-19.63635 -2.04354,-19.63635 l 37.70293,0.22627 -4.06586,38.37469 z" />
        <path
           inkscape:connector-curvature="0"
           id="path38795"
           style="fill:#ff0000;fill-rule:evenodd;stroke:#000000;stroke-width:2;stroke-opacity:0.95077"
           d="m 236.4774,736.19492 c -10.02678,-0.21213 -8.61256,1.88091 -15.72606,2.33346 -7.11349,0.45255 -4.47598,-1.16673 -12.99662,-0.0707 -8.58428,1.10308 -15.64827,4.15071 -23.34866,2.70114 -7.59433,-1.42835 -18.28579,-5.71342 -22.40115,-12.09152 -4.12243,-6.37103 1.64049,-15.17451 5.87606,-13.41382 3.82545,1.59099 1.68291,5.68514 4.70933,8.85298 3.1042,3.24562 5.42351,3.25976 17.63524,4.78004 12.15517,1.52028 26.95491,-3.81838 47.22767,-2.04354 20.28689,1.77484 25.56898,15.62706 28.07921,18.23629 -2.90621,-4.82954 -18.94339,-9.07218 -29.05502,-9.28432 z" />
        <path
           inkscape:connector-curvature="0"
           id="path37916"
           style="fill:#ffd42a;fill-rule:evenodd;stroke:#000000;stroke-width:2;stroke-opacity:0.95077;fill-opacity:1"
           d="m 183.91108,885.86115 c 14.07143,-8.20244 21.90617,-15.2028 34.35125,-18.90804 12.87641,-3.82545 18.51205,-9.58837 28.22063,-9.25603 9.7015,0.33941 12.11274,5.66393 10.6066,10.6066 -1.50614,4.95682 -4.44063,9.40452 -7.67918,13.54817 10.45811,4.58912 26.55893,-7.74989 32.05315,-25.27907 l 0.45255,27.53474 c 26.25488,-17.52918 27.01148,-30.77329 26.63671,-53.26635 l 9.02269,16.70186 c 9.56008,-21.89203 11.44098,-29.34493 4.29213,-58.90907 l 11.28543,18.96461 c 1.57685,-21.44655 -0.22628,-34.08255 -7.44584,-56.20792 l 10.83288,13.09562 c 1.27986,-19.33937 -6.24375,-34.38661 -15.80384,-50.11266 l -10.15405,6.09526 c 12.11274,-6.6963 14.4674,-11.01672 16.24931,-14.89167 1.82434,-3.97394 4.73762,-13.6613 0.22628,-18.28578 -4.73762,-4.85075 -29.11866,-5.64271 -29.11866,-5.64271 -5.19016,3.23855 -9.7015,4.44063 -15.57049,9.7015 6.01748,-5.11238 12.04203,-7.96909 17.60696,-9.92778 0,0 -8.80348,-8.5772 -12.64307,-9.02268 -3.64867,-0.43841 -26.3468,-0.1697 -39.27271,2.70115 -12.91884,2.87792 -10.83288,9.48937 -10.83288,9.48937 6.17304,0.89803 18.87975,2.47488 33.40373,2.2486 -22.18901,1.58392 -30.39852,-7.21956 -57.7777,5.42351 0,0 8.85298,4.45477 3.1537,9.92778 -5.60736,5.39522 -1.40715,12.35315 3.16784,15.79677 4.56083,3.44361 12.07031,2.59508 15.12501,-2.0294 3.01227,-4.58205 12.89056,-10.03385 15.57049,-4.73762 2.53144,5.02046 8.79641,15.34422 9.92778,22.1183 1.10309,6.59024 -4.45477,10.21063 -11.73797,9.47523 -7.02864,-0.7071 -13.25825,-0.72832 -17.38069,2.03647 -2.05768,1.37886 -6.67508,0.0566 -6.30032,3.41533 0.39598,3.62038 5.32452,2.97692 9.46816,7.41755 4.56791,4.90732 6.97915,4.27799 10.82581,0.89802 4.09414,-3.58503 9.70857,-2.02939 14.21991,-2.48194 -2.25567,9.02975 -9.17824,19.48786 -20.3081,16.24931 -10.87531,-3.15369 -17.91102,-2.55265 -27.54181,-0.44548 6.92257,2.55266 12.04203,5.11239 17.38068,9.70151 -19.41008,-2.25567 -36.11194,5.87606 -49.42676,19.64343 6.76701,1.35057 13.54109,2.70822 20.30811,4.05879 -28.66611,16.47559 -32.04608,35.66647 -31.81981,54.8432 6.54781,-8.49942 11.95718,-9.55301 19.63636,-11.95717 -12.71378,13.30775 -8.54893,29.5217 -3.21027,39.66869 z" />
        <path
           inkscape:connector-curvature="0"
           id="path38793"
           style="fill:none;stroke:#000000;stroke-width:2;stroke-opacity:0.95077"
           d="m 255.96526,754.77769 c 8.11759,-0.56568 22.23144,4.73762 32.49156,-2.25567 10.27426,-6.99329 11.21471,-24.12648 5.87606,-31.14805 -5.35987,-7.05693 -6.49124,-14.8351 1.58391,-22.34458 8.05395,-7.5024 17.14734,-6.88015 24.3669,-5.86898" />
        <path
           inkscape:connector-curvature="0"
           id="path39682"
           style="fill:#ffffff;fill-rule:evenodd;stroke:#000000;stroke-width:1.99999774;stroke-linecap:round;stroke-opacity:0.95077"
           d="m 261.70229,693.73078 a 7.067209,5.1068917 11.443681 1 1 -13.9534,-0.4731 7.067209,5.1068917 11.443681 1 1 13.9534,0.4731 z" />
      </g>
    </g>
  </g>
</svg>
